<mxfile host="app.diagrams.net" agent="Mozilla/5.0 (Windows NT 10.0; Win64; x64) AppleWebKit/537.36 (KHTML, like Gecko) Chrome/130.0.0.0 Safari/537.36" version="24.8.4">
  <diagram name="Trang-1" id="-a8Z6UhnuRNHjZpXbeR-">
    <mxGraphModel dx="1961" dy="526" grid="1" gridSize="10" guides="1" tooltips="1" connect="1" arrows="1" fold="1" page="1" pageScale="1" pageWidth="827" pageHeight="1169" math="0" shadow="0">
      <root>
        <mxCell id="0" />
        <mxCell id="1" parent="0" />
        <mxCell id="4mUNGZykfSJRsMWHa9BW-7" value="removeFromCart" style="text;html=1;align=center;verticalAlign=middle;resizable=0;points=[];autosize=1;strokeColor=#6c8ebf;fillColor=#dae8fc;" parent="1" vertex="1">
          <mxGeometry x="-215" y="110" width="110" height="30" as="geometry" />
        </mxCell>
        <mxCell id="4mUNGZykfSJRsMWHa9BW-8" value="" style="shape=umlLifeline;perimeter=lifelinePerimeter;whiteSpace=wrap;html=1;container=1;dropTarget=0;collapsible=0;recursiveResize=0;outlineConnect=0;portConstraint=eastwest;newEdgeStyle={&quot;curved&quot;:0,&quot;rounded&quot;:0};participant=umlActor;" parent="1" vertex="1">
          <mxGeometry x="-60" y="90" width="20" height="420" as="geometry" />
        </mxCell>
        <mxCell id="4mUNGZykfSJRsMWHa9BW-9" value="UI" style="shape=umlLifeline;perimeter=lifelinePerimeter;whiteSpace=wrap;html=1;container=1;dropTarget=0;collapsible=0;recursiveResize=0;outlineConnect=0;portConstraint=eastwest;newEdgeStyle={&quot;curved&quot;:0,&quot;rounded&quot;:0};" parent="1" vertex="1">
          <mxGeometry x="70" y="90" width="100" height="510" as="geometry" />
        </mxCell>
        <mxCell id="4mUNGZykfSJRsMWHa9BW-16" value="" style="html=1;points=[[0,0,0,0,5],[0,1,0,0,-5],[1,0,0,0,5],[1,1,0,0,-5]];perimeter=orthogonalPerimeter;outlineConnect=0;targetShapes=umlLifeline;portConstraint=eastwest;newEdgeStyle={&quot;curved&quot;:0,&quot;rounded&quot;:0};" parent="4mUNGZykfSJRsMWHa9BW-9" vertex="1">
          <mxGeometry x="45" y="87.5" width="10" height="372.5" as="geometry" />
        </mxCell>
        <mxCell id="4mUNGZykfSJRsMWHa9BW-11" value="Database" style="shape=umlLifeline;perimeter=lifelinePerimeter;whiteSpace=wrap;html=1;container=1;dropTarget=0;collapsible=0;recursiveResize=0;outlineConnect=0;portConstraint=eastwest;newEdgeStyle={&quot;curved&quot;:0,&quot;rounded&quot;:0};" parent="1" vertex="1">
          <mxGeometry x="650" y="100" width="100" height="490" as="geometry" />
        </mxCell>
        <mxCell id="enZPoDcmj9S5zknJX-PJ-5" value="" style="html=1;points=[[0,0,0,0,5],[0,1,0,0,-5],[1,0,0,0,5],[1,1,0,0,-5]];perimeter=orthogonalPerimeter;outlineConnect=0;targetShapes=umlLifeline;portConstraint=eastwest;newEdgeStyle={&quot;curved&quot;:0,&quot;rounded&quot;:0};" parent="4mUNGZykfSJRsMWHa9BW-11" vertex="1">
          <mxGeometry x="45" y="265" width="10" height="225" as="geometry" />
        </mxCell>
        <mxCell id="4mUNGZykfSJRsMWHa9BW-12" value="&lt;div style=&quot;&quot;&gt;chọn sản phẩm muốn xóa&lt;/div&gt;" style="html=1;verticalAlign=bottom;endArrow=block;curved=0;rounded=0;strokeColor=default;align=center;" parent="1" target="4mUNGZykfSJRsMWHa9BW-9" edge="1">
          <mxGeometry x="0.0025" width="80" relative="1" as="geometry">
            <mxPoint x="-50" y="180" as="sourcePoint" />
            <mxPoint x="30" y="190" as="targetPoint" />
            <mxPoint as="offset" />
          </mxGeometry>
        </mxCell>
        <mxCell id="4mUNGZykfSJRsMWHa9BW-23" value="alternative" style="shape=umlFrame;whiteSpace=wrap;html=1;pointerEvents=0;" parent="1" vertex="1">
          <mxGeometry x="-200" y="250" width="1030" height="370" as="geometry" />
        </mxCell>
        <mxCell id="4mUNGZykfSJRsMWHa9BW-26" value="[Invaild user]" style="text;html=1;align=center;verticalAlign=middle;resizable=0;points=[];autosize=1;strokeColor=none;fillColor=none;" parent="1" vertex="1">
          <mxGeometry x="-170" y="310" width="90" height="30" as="geometry" />
        </mxCell>
        <mxCell id="4mUNGZykfSJRsMWHa9BW-27" value="[Vaild user]" style="text;html=1;align=center;verticalAlign=middle;resizable=0;points=[];autosize=1;strokeColor=none;fillColor=none;" parent="1" vertex="1">
          <mxGeometry x="-170" y="520" width="80" height="30" as="geometry" />
        </mxCell>
        <mxCell id="4mUNGZykfSJRsMWHa9BW-29" value="Xóa&amp;nbsp; thành công" style="html=1;verticalAlign=bottom;endArrow=open;dashed=1;endSize=8;curved=0;rounded=0;" parent="1" edge="1">
          <mxGeometry relative="1" as="geometry">
            <mxPoint x="120" y="520" as="sourcePoint" />
            <mxPoint x="-45" y="520" as="targetPoint" />
          </mxGeometry>
        </mxCell>
        <mxCell id="enZPoDcmj9S5zknJX-PJ-1" value="Không được cập nhật" style="html=1;verticalAlign=bottom;endArrow=open;dashed=1;endSize=8;curved=0;rounded=0;" parent="1" source="4mUNGZykfSJRsMWHa9BW-16" edge="1">
          <mxGeometry relative="1" as="geometry">
            <mxPoint x="154.5" y="299.5" as="sourcePoint" />
            <mxPoint x="-45" y="299.5" as="targetPoint" />
          </mxGeometry>
        </mxCell>
        <mxCell id="enZPoDcmj9S5zknJX-PJ-8" value="&lt;span class=&quot;hljs-selector-tag&quot;&gt;X&lt;/span&gt;á&lt;span class=&quot;hljs-selector-tag&quot;&gt;c&lt;/span&gt; &lt;span class=&quot;hljs-selector-tag&quot;&gt;nh&lt;/span&gt;ậ&lt;span class=&quot;hljs-selector-tag&quot;&gt;n&lt;/span&gt; &lt;span class=&quot;hljs-selector-tag&quot;&gt;x&lt;/span&gt;ó&lt;span class=&quot;hljs-selector-tag&quot;&gt;a&lt;/span&gt; &lt;span class=&quot;hljs-selector-tag&quot;&gt;th&lt;/span&gt;à&lt;span class=&quot;hljs-selector-tag&quot;&gt;nh&lt;/span&gt; &lt;span class=&quot;hljs-selector-tag&quot;&gt;c&lt;/span&gt;ô&lt;span class=&quot;hljs-selector-tag&quot;&gt;ng&lt;/span&gt;" style="html=1;verticalAlign=bottom;endArrow=open;dashed=1;endSize=8;curved=0;rounded=0;" parent="1" edge="1">
          <mxGeometry x="-0.0667" y="-4" relative="1" as="geometry">
            <mxPoint x="690" y="480" as="sourcePoint" />
            <mxPoint x="510" y="480.23" as="targetPoint" />
            <mxPoint x="-1" as="offset" />
          </mxGeometry>
        </mxCell>
        <mxCell id="enZPoDcmj9S5zknJX-PJ-9" value="" style="html=1;points=[[0,0,0,0,5],[0,1,0,0,-5],[1,0,0,0,5],[1,1,0,0,-5]];perimeter=orthogonalPerimeter;outlineConnect=0;targetShapes=umlLifeline;portConstraint=eastwest;newEdgeStyle={&quot;curved&quot;:0,&quot;rounded&quot;:0};" parent="1" vertex="1">
          <mxGeometry x="-55" y="180" width="10" height="380" as="geometry" />
        </mxCell>
        <mxCell id="enZPoDcmj9S5zknJX-PJ-10" value="" style="endArrow=none;dashed=1;html=1;rounded=0;exitX=-0.002;exitY=0.506;exitDx=0;exitDy=0;exitPerimeter=0;entryX=0.996;entryY=0.396;entryDx=0;entryDy=0;entryPerimeter=0;" parent="1" edge="1">
          <mxGeometry width="50" height="50" relative="1" as="geometry">
            <mxPoint x="-201.99999999999972" y="439.9999999999999" as="sourcePoint" />
            <mxPoint x="827.1000000000004" y="442.77999999999986" as="targetPoint" />
          </mxGeometry>
        </mxCell>
        <mxCell id="HFi5EjZitsS3R7-4-ney-1" value="Check token" style="html=1;verticalAlign=bottom;endArrow=block;curved=0;rounded=0;" parent="1" edge="1">
          <mxGeometry width="80" relative="1" as="geometry">
            <mxPoint x="130" y="200" as="sourcePoint" />
            <mxPoint x="305" y="200" as="targetPoint" />
          </mxGeometry>
        </mxCell>
        <mxCell id="HFi5EjZitsS3R7-4-ney-2" value="Token không hợp lệ" style="html=1;verticalAlign=bottom;endArrow=open;dashed=1;endSize=8;curved=0;rounded=0;" parent="1" edge="1">
          <mxGeometry relative="1" as="geometry">
            <mxPoint x="305" y="270" as="sourcePoint" />
            <mxPoint x="130" y="270" as="targetPoint" />
          </mxGeometry>
        </mxCell>
        <mxCell id="__19vXfUVPWas-dRL_L8-2" value="Trả về phản hồi" style="html=1;verticalAlign=bottom;endArrow=open;dashed=1;endSize=8;curved=0;rounded=0;" parent="1" edge="1">
          <mxGeometry x="0.0501" y="-4" relative="1" as="geometry">
            <mxPoint x="504.75" y="499.9999999999999" as="sourcePoint" />
            <mxPoint x="115.25181818181852" y="500" as="targetPoint" />
            <mxPoint as="offset" />
          </mxGeometry>
        </mxCell>
        <mxCell id="LwlhWjC0HHJAO8HIsf-f-1" value="User" style="text;html=1;align=center;verticalAlign=middle;resizable=0;points=[];autosize=1;strokeColor=none;fillColor=none;" parent="1" vertex="1">
          <mxGeometry x="-75" y="58" width="50" height="30" as="geometry" />
        </mxCell>
        <mxCell id="LwlhWjC0HHJAO8HIsf-f-2" value="Chuyển tiếp yêu cầu&amp;nbsp;" style="html=1;verticalAlign=bottom;endArrow=block;curved=0;rounded=0;" parent="1" edge="1">
          <mxGeometry width="80" relative="1" as="geometry">
            <mxPoint x="320" y="310" as="sourcePoint" />
            <mxPoint x="500" y="310" as="targetPoint" />
          </mxGeometry>
        </mxCell>
        <mxCell id="LwlhWjC0HHJAO8HIsf-f-3" value="AuthMiddleware" style="shape=umlLifeline;perimeter=lifelinePerimeter;whiteSpace=wrap;html=1;container=1;dropTarget=0;collapsible=0;recursiveResize=0;outlineConnect=0;portConstraint=eastwest;newEdgeStyle={&quot;curved&quot;:0,&quot;rounded&quot;:0};" parent="1" vertex="1">
          <mxGeometry x="260" y="95" width="100" height="225" as="geometry" />
        </mxCell>
        <mxCell id="LwlhWjC0HHJAO8HIsf-f-4" value="" style="html=1;points=[[0,0,0,0,5],[0,1,0,0,-5],[1,0,0,0,5],[1,1,0,0,-5]];perimeter=orthogonalPerimeter;outlineConnect=0;targetShapes=umlLifeline;portConstraint=eastwest;newEdgeStyle={&quot;curved&quot;:0,&quot;rounded&quot;:0};" parent="LwlhWjC0HHJAO8HIsf-f-3" vertex="1">
          <mxGeometry x="45" y="100" width="10" height="120" as="geometry" />
        </mxCell>
        <mxCell id="LwlhWjC0HHJAO8HIsf-f-15" value="CartController" style="shape=umlLifeline;perimeter=lifelinePerimeter;whiteSpace=wrap;html=1;container=1;dropTarget=0;collapsible=0;recursiveResize=0;outlineConnect=0;portConstraint=eastwest;newEdgeStyle={&quot;curved&quot;:0,&quot;rounded&quot;:0};" parent="1" vertex="1">
          <mxGeometry x="460" y="95" width="100" height="490" as="geometry" />
        </mxCell>
        <mxCell id="LwlhWjC0HHJAO8HIsf-f-16" value="" style="html=1;points=[[0,0,0,0,5],[0,1,0,0,-5],[1,0,0,0,5],[1,1,0,0,-5]];perimeter=orthogonalPerimeter;outlineConnect=0;targetShapes=umlLifeline;portConstraint=eastwest;newEdgeStyle={&quot;curved&quot;:0,&quot;rounded&quot;:0};" parent="LwlhWjC0HHJAO8HIsf-f-15" vertex="1">
          <mxGeometry x="45" y="210" width="10" height="250" as="geometry" />
        </mxCell>
        <mxCell id="LwlhWjC0HHJAO8HIsf-f-17" value="Gửi dữ liệu" style="html=1;verticalAlign=bottom;endArrow=block;curved=0;rounded=0;" parent="1" target="4mUNGZykfSJRsMWHa9BW-11" edge="1">
          <mxGeometry x="0.0028" y="10" width="80" relative="1" as="geometry">
            <mxPoint x="520" y="360" as="sourcePoint" />
            <mxPoint x="520" y="349.2299999999999" as="targetPoint" />
            <mxPoint x="-1" as="offset" />
          </mxGeometry>
        </mxCell>
        <mxCell id="LwlhWjC0HHJAO8HIsf-f-20" value="" style="html=1;points=[[0,0,0,0,5],[0,1,0,0,-5],[1,0,0,0,5],[1,1,0,0,-5]];perimeter=orthogonalPerimeter;outlineConnect=0;targetShapes=umlLifeline;portConstraint=eastwest;newEdgeStyle={&quot;curved&quot;:0,&quot;rounded&quot;:0};" parent="1" vertex="1">
          <mxGeometry x="700" y="385" width="10" height="40" as="geometry" />
        </mxCell>
        <mxCell id="LwlhWjC0HHJAO8HIsf-f-21" value="Check data" style="html=1;align=left;spacingLeft=2;endArrow=block;rounded=0;edgeStyle=orthogonalEdgeStyle;curved=0;rounded=0;" parent="1" target="LwlhWjC0HHJAO8HIsf-f-20" edge="1">
          <mxGeometry relative="1" as="geometry">
            <mxPoint x="705" y="365" as="sourcePoint" />
            <Array as="points">
              <mxPoint x="735" y="395" />
            </Array>
          </mxGeometry>
        </mxCell>
        <mxCell id="LwlhWjC0HHJAO8HIsf-f-23" value="Cập nhật vào database" style="html=1;verticalAlign=bottom;endArrow=block;curved=0;rounded=0;" parent="1" edge="1">
          <mxGeometry width="80" relative="1" as="geometry">
            <mxPoint x="520.5" y="550" as="sourcePoint" />
            <mxPoint x="699.9999999999995" y="550" as="targetPoint" />
          </mxGeometry>
        </mxCell>
        <mxCell id="8XEmSdcpxNTJJj2FMhU6-2" value="Trả về kết quả" style="html=1;verticalAlign=bottom;endArrow=open;dashed=1;endSize=8;curved=0;rounded=0;" parent="1" edge="1">
          <mxGeometry x="-0.0667" y="-4" relative="1" as="geometry">
            <mxPoint x="690" y="400" as="sourcePoint" />
            <mxPoint x="510" y="400.23" as="targetPoint" />
            <mxPoint x="-1" as="offset" />
          </mxGeometry>
        </mxCell>
        <mxCell id="8XEmSdcpxNTJJj2FMhU6-3" value="Trả về phản hồi" style="html=1;verticalAlign=bottom;endArrow=open;dashed=1;endSize=8;curved=0;rounded=0;" parent="1" edge="1">
          <mxGeometry x="0.0501" y="-4" relative="1" as="geometry">
            <mxPoint x="509.75" y="409.9999999999999" as="sourcePoint" />
            <mxPoint x="120.25181818181852" y="410" as="targetPoint" />
            <mxPoint as="offset" />
          </mxGeometry>
        </mxCell>
        <mxCell id="8XEmSdcpxNTJJj2FMhU6-4" value="Thông báo lỗi" style="html=1;verticalAlign=bottom;endArrow=open;dashed=1;endSize=8;curved=0;rounded=0;" parent="1" edge="1">
          <mxGeometry relative="1" as="geometry">
            <mxPoint x="120" y="425" as="sourcePoint" />
            <mxPoint x="-45" y="425" as="targetPoint" />
          </mxGeometry>
        </mxCell>
      </root>
    </mxGraphModel>
  </diagram>
</mxfile>
